<svg width="39" height="43" viewBox="0 0 39 43" fill="none" xmlns="http://www.w3.org/2000/svg">
<path d="M5.91364 8.11608V35.0744C5.91364 36.2573 6.76143 37.2133 7.80972 37.2133H31.7072C32.7559 37.2133 33.6033 36.2569 33.6033 35.0744V8.11608C33.6033 6.93315 32.7555 5.97715 31.7072 5.97715H7.80972C6.76109 5.97715 5.91364 6.93353 5.91364 8.11608ZM0.87915 8.11608C0.87915 3.79745 3.98017 0.297852 7.80972 0.297852H31.7072C35.5356 0.297852 38.6378 3.79604 38.6378 8.11608V35.0744C38.6378 39.393 35.5368 42.8926 31.7072 42.8926H7.80972C3.98141 42.8926 0.87915 39.3944 0.87915 35.0744V8.11608Z" fill="url(#paint0_linear_29_112)"/>
<path d="M20.3881 31.5349C15.8698 31.5349 12.207 27.403 12.207 22.306C12.207 17.2091 15.8698 13.0771 20.3881 13.0771C24.9063 13.0771 28.5691 17.2091 28.5691 22.306C28.5691 27.403 24.9063 31.5349 20.3881 31.5349ZM20.3881 25.8556C22.1259 25.8556 23.5346 24.2664 23.5346 22.306C23.5346 20.3456 22.1259 18.7564 20.3881 18.7564C18.6503 18.7564 17.2415 20.3456 17.2415 22.306C17.2415 24.2664 18.6503 25.8556 20.3881 25.8556Z" fill="url(#paint1_linear_29_112)"/>
<path d="M29.1982 13.0766C30.2409 13.0766 31.0862 12.1231 31.0862 10.9469C31.0862 9.77065 30.2409 8.81714 29.1982 8.81714C28.1556 8.81714 27.3103 9.77065 27.3103 10.9469C27.3103 12.1231 28.1556 13.0766 29.1982 13.0766Z" fill="url(#paint2_linear_29_112)"/>
<defs>
<linearGradient id="paint0_linear_29_112" x1="-28.0517" y1="-37.4923" x2="42.5994" y2="40.5037" gradientUnits="userSpaceOnUse">
<stop offset="0.0239582" stop-color="#FF0C9A" stop-opacity="0.94"/>
<stop offset="1" stop-color="#8C2B31"/>
</linearGradient>
<linearGradient id="paint1_linear_29_112" x1="-0.329669" y1="-3.29859" x2="30.2858" y2="30.4997" gradientUnits="userSpaceOnUse">
<stop offset="0.0239582" stop-color="#FF0C9A" stop-opacity="0.94"/>
<stop offset="1" stop-color="#8C2B31"/>
</linearGradient>
<linearGradient id="paint2_linear_29_112" x1="24.4172" y1="5.03812" x2="31.4823" y2="12.8377" gradientUnits="userSpaceOnUse">
<stop offset="0.0239582" stop-color="#FF0C9A" stop-opacity="0.94"/>
<stop offset="1" stop-color="#8C2B31"/>
</linearGradient>
</defs>
</svg>
