<svg width="31" height="34" viewBox="0 0 31 34" fill="none" xmlns="http://www.w3.org/2000/svg">
<path fill-rule="evenodd" clip-rule="evenodd" d="M24.9344 21.3112C24.9344 18.4333 22.8983 16.1463 20.631 16.1463C18.8986 16.1463 17.367 16.1463 16.3495 18.5553C16.1616 19.0001 15.9442 20.2951 15.9442 20.9356V33.3733H10.4403V17.5752V9.78298H16.1556L16.4376 12.8561H16.5609C17.3861 11.3959 19.2615 9.78298 22.645 9.78298C26.7695 9.78298 30.4669 13.3702 30.4669 19.9458V33.3733H24.9344V21.3112ZM3.02955 6.97943C1.22886 6.97943 0.0668945 5.57938 0.0668945 3.84945C0.0668945 2.07745 1.26647 0.717285 3.10345 0.717285C4.94043 0.717285 6.06611 2.07673 6.10372 3.84945C6.10438 5.57938 4.94109 6.97943 3.02955 6.97943ZM0.729918 33.3733V9.78298H5.56266V33.3733H0.729918Z" fill="#0A3586"/>
</svg>
