<svg width="38" height="42" viewBox="0 0 38 42" fill="none" xmlns="http://www.w3.org/2000/svg">
<path fill-rule="evenodd" clip-rule="evenodd" d="M34.3525 38.445C29.2779 44.6068 22.3948 40.629 22.3948 40.629C17.5286 41.1748 13.7052 39.5365 13.7052 39.5365C5.08441 36.6513 2.86013 27.6836 2.86013 27.6836C0.844235 21.7546 2.02568 17.1549 2.02568 17.1549C-1.38095 9.82238 3.41643 4.20741 3.41643 4.20741C9.18687 -2.34254 16.0699 2.33643 16.0699 2.33643C26.4293 0.619928 31.9216 8.02966 31.9216 8.02966C38.3181 15.0491 36.372 25.1093 36.372 25.1093C39.0801 33.1431 34.3525 38.445 34.3525 38.445ZM15.722 12.9353C20.8374 9.95145 23.1477 13.8611 23.1477 13.8611C25.7616 18.1956 27.4731 16.4262 27.4731 16.4262C30.1775 13.7646 26.9729 10.5887 26.9729 10.5887C22.0623 5.45338 14.1392 8.59268 14.1392 8.59268C8.18662 10.8356 9.4777 16.9994 9.4777 16.9994C11.268 22.5554 19.2582 23.2546 19.2582 23.2546C24.0039 23.6754 24.0456 26.6175 24.0456 26.6175C24.254 29.8869 19.5082 30.4916 19.5082 30.4916C15.4185 30.2609 14.5695 28.2964 14.5695 28.2964C12.7765 25.6358 12.29 25.0717 11.1738 25.0392C8.36964 24.9569 8.67678 28.3564 8.67678 28.3564C10.0494 34.7986 18.0106 34.6482 18.0106 34.6482C29.0405 35.3952 29.6231 26.9895 29.6231 26.9895C30.1232 21.2007 23.5881 19.1 23.5881 19.1C18.9257 18.1661 16.2611 16.7656 16.2611 16.7656C13.4742 14.9912 15.722 12.9353 15.722 12.9353Z" fill="#5EA7FF"/>
</svg>
