<svg aria-hidden="true" style="position: absolute; width: 0; height: 0; overflow: hidden;" version="1.1" xmlns="http://www.w3.org/2000/svg" xmlns:xlink="http://www.w3.org/1999/xlink">
<defs>
<symbol id="icon-instagram" viewBox="0 0 29 32">
<path d="M4.401 6.040v20.062c0 0.88 0.631 1.592 1.411 1.592h17.784c0.78 0 1.411-0.712 1.411-1.592v-20.062c0-0.88-0.631-1.592-1.411-1.592h-17.784c-0.78 0-1.411 0.712-1.411 1.592zM0.654 6.040c0-3.214 2.308-5.818 5.158-5.818h17.784c2.849 0 5.158 2.603 5.158 5.818v20.062c0 3.214-2.308 5.818-5.158 5.818h-17.784c-2.849 0-5.158-2.603-5.158-5.818v-20.062z"></path>
<path d="M15.173 23.468c-3.362 0-6.088-3.075-6.088-6.868s2.726-6.868 6.088-6.868c3.362 0 6.088 3.075 6.088 6.868s-2.726 6.868-6.088 6.868zM15.173 19.241c1.293 0 2.342-1.183 2.342-2.642s-1.048-2.642-2.342-2.642c-1.293 0-2.342 1.183-2.342 2.642s1.048 2.642 2.342 2.642z"></path>
<path d="M21.729 9.731c0.776 0 1.405-0.71 1.405-1.585s-0.629-1.585-1.405-1.585c-0.776 0-1.405 0.71-1.405 1.585s0.629 1.585 1.405 1.585z"></path>
</symbol>
<symbol id="icon-linkedin" viewBox="0 0 29 32">
<path fill="#0a3586" style="fill: var(--color1, #0a3586)" d="M23.468 20.058c0-2.709-1.916-4.861-4.050-4.861-1.631 0-3.072 0-4.030 2.267-0.177 0.419-0.381 1.637-0.381 2.24v11.706h-5.18v-22.203h5.379l0.265 2.892h0.116c0.777-1.374 2.542-2.892 5.726-2.892 3.882 0 7.362 3.376 7.362 9.565v12.638h-5.207v-11.353zM2.851 6.569c-1.695 0-2.788-1.318-2.788-2.946 0-1.668 1.129-2.948 2.858-2.948s2.788 1.279 2.824 2.948c0.001 1.628-1.094 2.946-2.893 2.946zM0.687 31.41v-22.203h4.548v22.203h-4.548z"></path>
</symbol>
<symbol id="icon-skype" viewBox="0 0 29 32">
<path fill="#5ea7ff" style="fill: var(--color2, #5ea7ff)" d="M26.173 29.291c-3.866 4.695-9.111 1.664-9.111 1.664-3.708 0.416-6.621-0.832-6.621-0.832-6.568-2.198-8.263-9.031-8.263-9.031-1.536-4.517-0.636-8.022-0.636-8.022-2.596-5.587 1.060-9.865 1.060-9.865 4.397-4.99 9.641-1.425 9.641-1.425 7.893-1.308 12.078 4.338 12.078 4.338 4.874 5.348 3.391 13.013 3.391 13.013 2.063 6.121-1.539 10.161-1.539 10.161zM11.979 9.855c3.897-2.273 5.658 0.705 5.658 0.705 1.992 3.302 3.296 1.954 3.296 1.954 2.061-2.028-0.381-4.448-0.381-4.448-3.741-3.913-9.778-1.521-9.778-1.521-4.535 1.709-3.552 6.405-3.552 6.405 1.364 4.233 7.452 4.766 7.452 4.766 3.616 0.321 3.648 2.562 3.648 2.562 0.159 2.491-3.457 2.952-3.457 2.952-3.116-0.176-3.763-1.673-3.763-1.673-1.366-2.027-1.737-2.457-2.587-2.482-2.136-0.063-1.902 2.527-1.902 2.527 1.046 4.908 7.111 4.794 7.111 4.794 8.404 0.569 8.848-5.835 8.848-5.835 0.381-4.41-4.598-6.011-4.598-6.011-3.552-0.712-5.582-1.779-5.582-1.779-2.123-1.352-0.411-2.918-0.411-2.918z"></path>
</symbol>
<symbol id="icon-twitter" viewBox="0 0 36 32">
<path fill="#5ea7ff" style="fill: var(--color2, #5ea7ff)" d="M31.628 5.267c0 0 2.796-0.24 3.917-1.152 0 0-0.269 1.049-3.633 4.37 0 0 1.133 17.915-16.126 22.303 0 0-8.753 2.036-15.095-3.157 0 0 6.64 1.286 10.375-3.212 0 0-4.819 0.053-6.343-5.299 0 0 1.819 0.428 2.901-0.107 0 0-5.458-1.232-5.36-7.71 0 0 1.475 1.178 2.802 0.964 0 0-4.916-4.551-1.868-10.224 0 0 6.587 8.481 14.752 7.977-0.142-0.607-0.219-1.243-0.219-1.901 0-4.216 3.141-7.637 7.016-7.637 1.958 0 3.728 0.874 5.001 2.282 0.933 0.017 2.853-0.164 4.77-1.658 0 0.001 0.11 1.634-2.891 4.162z"></path>
</symbol>
<symbol id="icon-checkmark2" viewBox="0 0 32 32">
<path d="M12.42 28.678l-12.433-12.238 6.168-6.071 6.265 6.167 13.426-13.214 6.168 6.071-19.594 19.285zM3.372 16.441l9.048 8.905 16.208-15.953-2.782-2.739-13.426 13.214-6.265-6.167-2.782 2.739z"></path>
</symbol>
</defs>
</svg>
