<svg width="42" height="37" viewBox="0 0 42 37" fill="none" xmlns="http://www.w3.org/2000/svg">
<path fill-rule="evenodd" clip-rule="evenodd" d="M36.5702 6.09009C36.5702 6.09009 39.8026 5.81201 41.0998 4.75802C41.0998 4.75802 40.7889 5.97136 36.8992 9.81031C36.8992 9.81031 38.2089 30.5246 18.2535 35.5977C18.2535 35.5977 8.13334 37.9514 0.799805 31.9472C0.799805 31.9472 8.47677 33.4345 12.796 28.2333C12.796 28.2333 7.22454 28.2947 5.46243 22.1062C5.46243 22.1062 7.56606 22.6009 8.81637 21.9822C8.81637 21.9822 2.50548 20.5575 2.61932 13.0681C2.61932 13.0681 4.32499 14.4304 5.85943 14.1825C5.85943 14.1825 0.175125 8.91983 3.69935 2.36051C3.69935 2.36051 11.3161 12.1662 20.7561 11.584C20.5915 10.882 20.5026 10.1467 20.5026 9.38642C20.5026 4.51119 24.1349 0.556641 28.6148 0.556641C30.8782 0.556641 32.9254 1.56689 34.3976 3.19474C35.4767 3.21453 37.6961 3.00519 39.9126 1.27735C39.9126 1.27839 40.0399 3.16662 36.5702 6.09009Z" fill="#5EA7FF"/>
</svg>
